<svg xmlns="http://www.w3.org/2000/svg" viewBox="0 0 133 32"><path d="M5.04 25.074v-9.798h9.695v-4.134H5.04V5.49h10.742V1.355H0v23.72h5.04zM20.925 4.992a2.69 2.69 0 001.898-.736c.527-.49.79-1.079.79-1.766s-.263-1.274-.79-1.76A2.701 2.701 0 0020.925 0c-.729 0-1.357.243-1.885.73-.528.486-.792 1.073-.792 1.76s.264 1.276.792 1.766 1.156.736 1.885.736zm2.468 20.082V7.284h-4.958v17.79h4.958zm8.274 0V1.355h-4.958v23.72h4.958zm8.274 0V14.396c0-.988.28-1.782.838-2.38a2.721 2.721 0 012.072-.898c.814 0 1.472.259 1.972.776.5.518.751 1.213.751 2.085v11.095h4.807V14.211c0-.92.252-1.664.756-2.236.505-.571 1.207-.857 2.107-.857.791 0 1.451.247 1.979.742.527.494.791 1.235.791 2.223v10.991h4.947V13.11c0-1.93-.522-3.422-1.566-4.476-1.044-1.054-2.4-1.58-4.068-1.58-1.311 0-2.446.306-3.404.92-.958.614-1.62 1.43-1.984 2.45h-.187c-.287-1.035-.86-1.856-1.722-2.462-.861-.606-1.905-.909-3.131-.909-1.203 0-2.24.3-3.113.898-.873.598-1.496 1.422-1.868 2.472h-.21V7.285h-4.725v17.79h4.958zM72.284 32c1.707 0 3.216-.255 4.527-.764 1.312-.51 2.342-1.267 3.09-2.27.75-1.004 1.124-2.243 1.124-3.718V7.285H76.1v2.988h-.186a6.225 6.225 0 00-.954-1.471c-.42-.494-.966-.91-1.641-1.245-.675-.336-1.513-.504-2.514-.504a6.743 6.743 0 00-3.602 1.014c-1.098.675-1.979 1.685-2.642 3.028-.664 1.344-.996 3.027-.996 5.05 0 1.969.324 3.594.972 4.876.648 1.281 1.521 2.235 2.619 2.86 1.098.626 2.318.938 3.66.938 1.428 0 2.553-.299 3.376-.897.822-.599 1.396-1.265 1.722-1.998h.21v3.254c0 1.166-.351 2.004-1.054 2.514-.702.51-1.592.764-2.67.764-1.095 0-1.935-.199-2.52-.596-.586-.398-.98-.836-1.182-1.315l-4.586.614c.295 1.343 1.13 2.486 2.503 3.428 1.373.942 3.263 1.413 5.668 1.413zm.105-10.887c-1.219 0-2.15-.448-2.794-1.343-.644-.896-.966-2.112-.966-3.648 0-1.514.32-2.75.96-3.707.64-.957 1.574-1.436 2.8-1.436 1.202 0 2.13.467 2.781 1.402.652.934.978 2.18.978 3.74 0 1.568-.328 2.792-.983 3.672-.656.88-1.581 1.32-2.776 1.32zm17.05 4.297c1.318 0 2.41-.26 3.276-.782.865-.52 1.515-1.195 1.95-2.02h.139v2.466h4.702V13.076c0-1.413-.355-2.562-1.065-3.446-.71-.884-1.643-1.534-2.8-1.951-1.155-.417-2.397-.626-3.724-.626-2.141 0-3.889.475-5.243 1.425-1.354.95-2.202 2.235-2.543 3.856l4.586.371c.17-.594.52-1.085 1.047-1.47.528-.387 1.238-.58 2.13-.58.846 0 1.5.2 1.961.602.462.402.693.97.693 1.703v.07c0 .57-.334.941-1.001 1.111-.667.17-1.777.332-3.329.487a14.04 14.04 0 00-3.3.689c-1.02.351-1.844.905-2.473 1.662-.628.756-.942 1.799-.942 3.127 0 1.76.562 3.084 1.687 3.972 1.125.888 2.541 1.332 4.248 1.332zm1.42-3.405c-.761 0-1.388-.174-1.88-.521-.493-.348-.74-.861-.74-1.54 0-.695.266-1.224.798-1.587.531-.363 1.232-.606 2.1-.73.365-.054.778-.118 1.24-.19.462-.074.896-.161 1.304-.261.407-.1.708-.217.902-.348v1.888c0 .934-.35 1.716-1.048 2.345-.698.63-1.59.944-2.677.944zm16.816 3.07V15.01c0-1.097.359-1.986 1.077-2.67.717-.683 1.623-1.025 2.717-1.025.342 0 .718.025 1.13.076.41.05.733.113.965.19V7.205a6.749 6.749 0 00-1.56-.174c-1 0-1.885.284-2.653.851-.768.568-1.315 1.404-1.64 2.508h-.187V7.285h-4.807v17.79h4.958zm18.074.289c1.358 0 2.584-.35 3.678-1.048 1.094-.7 1.963-1.73 2.607-3.093.644-1.362.966-3.036.966-5.02 0-2.039-.332-3.735-.995-5.09-.664-1.355-1.542-2.37-2.636-3.046a6.734 6.734 0 00-3.608-1.014c-.993 0-1.828.168-2.503.504-.675.336-1.218.75-1.63 1.245-.41.494-.728.984-.953 1.47h-.152V1.356h-4.958v23.72h4.888v-2.85h.222c.232.494.56.983.983 1.465.423.483.97.882 1.641 1.199.671.316 1.488.475 2.45.475zm-1.571-3.926c-1.195 0-2.12-.481-2.776-1.442-.656-.962-.984-2.234-.984-3.816 0-1.591.326-2.855.978-3.793.652-.939 1.58-1.408 2.782-1.408 1.226 0 2.159.481 2.799 1.442.64.962.96 2.214.96 3.759 0 1.551-.322 2.816-.966 3.792-.644.977-1.575 1.466-2.793 1.466z"/></svg>
