<?xml version="1.0" standalone="no"?>
<!DOCTYPE svg PUBLIC "-//W3C//DTD SVG 20010904//EN"
 "http://www.w3.org/TR/2001/REC-SVG-20010904/DTD/svg10.dtd">
<svg version="1.0" xmlns="http://www.w3.org/2000/svg"
 width="512.000000pt" height="512.000000pt" viewBox="0 0 512.000000 512.000000"
 preserveAspectRatio="xMidYMid meet">
<metadata>
Created by potrace 1.11, written by Peter Selinger 2001-2013
</metadata>
<g transform="translate(0.000000,512.000000) scale(0.100000,-0.100000)"
fill="#000000" stroke="none">
<path d="M0 2560 l0 -2560 2560 0 2560 0 0 2560 0 2560 -2560 0 -2560 0 0
-2560z m3345 1472 c175 -47 310 -125 436 -251 129 -129 209 -272 255 -451 29
-114 27 -346 -4 -455 -112 -390 -415 -654 -811 -705 -114 -15 -212 -7 -350 26
l-104 26 -111 -111 -111 -111 100 -100 100 -100 120 119 c66 65 130 124 142
130 59 30 143 -3 169 -66 33 -79 39 -72 -389 -501 -216 -216 -404 -400 -419
-408 -91 -48 -202 34 -183 135 5 30 40 69 196 226 l189 191 -100 99 -100 99
-183 -182 c-197 -196 -210 -204 -288 -188 -18 3 -55 29 -90 63 l-60 57 -128
-128 c-126 -126 -130 -129 -180 -134 -49 -4 -52 -3 -92 37 -40 40 -41 43 -37
92 5 50 8 54 133 179 l128 129 -55 59 c-30 33 -58 73 -61 89 -12 64 0 82 192
276 l185 187 -104 105 -104 105 -191 -189 c-157 -156 -196 -191 -226 -196
-101 -19 -183 92 -135 183 8 15 192 203 408 419 429 428 422 422 501 389 63
-26 96 -110 66 -169 -6 -12 -65 -76 -130 -142 l-119 -120 105 -105 105 -105
110 110 109 110 -25 84 c-54 186 -53 377 3 556 107 338 396 591 750 655 79 15
308 4 388 -18z"/>
<path d="M3002 3800 c-341 -62 -582 -346 -582 -688 0 -215 93 -408 260 -543
122 -98 270 -149 432 -149 464 0 801 449 667 888 -37 119 -86 200 -179 292
-93 93 -173 142 -293 179 -79 24 -228 34 -305 21z"/>
<path d="M2060 2225 l-300 -300 88 -88 87 -87 301 303 300 302 -88 85 -88 85
-300 -300z"/>
</g>
</svg>
